<?xml version="1.0" encoding="utf-8"?>
<svg viewBox="29.656 27.031 113.328 32.531" xmlns="http://www.w3.org/2000/svg">
  <path d="M 32.19 52.502 L 32.19 32.962 C 32.977 32.869 33.82 32.799 34.72 32.752 C 35.627 32.705 36.583 32.682 37.59 32.682 C 38.803 32.682 39.887 32.829 40.84 33.122 C 41.793 33.422 42.597 33.835 43.25 34.362 C 43.903 34.882 44.397 35.512 44.73 36.252 C 45.07 36.985 45.24 37.782 45.24 38.642 C 45.24 39.689 45.04 40.619 44.64 41.432 C 44.233 42.239 43.673 42.922 42.96 43.482 C 42.24 44.042 41.377 44.469 40.37 44.762 C 39.357 45.049 38.243 45.192 37.03 45.192 C 36.25 45.192 35.523 45.165 34.85 45.112 L 34.85 52.502 L 32.19 52.502 Z M 37.37 42.982 C 39.05 42.982 40.343 42.612 41.25 41.872 C 42.157 41.139 42.61 40.135 42.61 38.862 C 42.61 37.649 42.173 36.689 41.3 35.982 C 40.433 35.275 39.18 34.922 37.54 34.922 C 37.033 34.922 36.557 34.929 36.11 34.942 C 35.663 34.962 35.243 34.992 34.85 35.032 L 34.85 42.842 C 35.15 42.882 35.51 42.915 35.93 42.942 C 36.35 42.969 36.83 42.982 37.37 42.982 ZM 50.694 37.942 L 50.694 52.502 L 48.174 52.502 L 48.174 37.942 L 50.694 37.942 Z M 49.434 35.452 C 48.947 35.452 48.531 35.279 48.184 34.932 C 47.844 34.585 47.674 34.169 47.674 33.682 C 47.674 33.142 47.831 32.715 48.144 32.402 C 48.464 32.082 48.894 31.922 49.434 31.922 C 49.921 31.922 50.337 32.095 50.684 32.442 C 51.024 32.789 51.194 33.202 51.194 33.682 C 51.194 34.229 51.037 34.659 50.724 34.972 C 50.404 35.292 49.974 35.452 49.434 35.452 ZM 53.212 51.132 L 58.392 45.112 L 53.412 39.342 L 55.372 37.632 L 59.872 43.462 L 64.302 37.742 L 66.172 39.342 L 61.332 45.002 L 66.652 51.132 L 64.752 52.752 L 59.852 46.682 L 55.002 52.702 L 53.212 51.132 ZM 80.539 46.262 L 70.349 46.262 C 70.516 47.622 70.989 48.685 71.769 49.452 C 72.556 50.219 73.592 50.602 74.879 50.602 C 75.719 50.602 76.476 50.512 77.149 50.332 C 77.822 50.152 78.466 49.922 79.079 49.642 L 79.669 51.802 C 78.996 52.122 78.239 52.375 77.399 52.562 C 76.559 52.749 75.616 52.842 74.569 52.842 C 73.529 52.842 72.589 52.669 71.749 52.322 C 70.909 51.975 70.192 51.479 69.599 50.832 C 69.012 50.192 68.562 49.399 68.249 48.452 C 67.929 47.512 67.769 46.435 67.769 45.222 C 67.769 44.142 67.929 43.135 68.249 42.202 C 68.562 41.269 69.009 40.459 69.589 39.772 C 70.169 39.092 70.859 38.562 71.659 38.182 C 72.466 37.795 73.362 37.602 74.349 37.602 C 75.396 37.602 76.309 37.782 77.089 38.142 C 77.876 38.495 78.529 38.979 79.049 39.592 C 79.576 40.212 79.969 40.932 80.229 41.752 C 80.489 42.572 80.619 43.439 80.619 44.352 C 80.619 45.005 80.592 45.642 80.539 46.262 Z M 74.289 39.792 C 73.189 39.792 72.289 40.165 71.589 40.912 C 70.889 41.659 70.466 42.759 70.319 44.212 L 78.299 44.212 C 78.299 42.792 77.942 41.702 77.229 40.942 C 76.522 40.175 75.542 39.792 74.289 39.792 ZM 86.357 31.782 L 86.357 47.682 C 86.357 48.695 86.567 49.442 86.987 49.922 C 87.407 50.409 87.991 50.652 88.737 50.652 C 89.091 50.652 89.437 50.612 89.777 50.532 C 90.111 50.445 90.407 50.345 90.667 50.232 L 91.287 52.282 C 90.947 52.429 90.531 52.559 90.037 52.672 C 89.544 52.785 88.997 52.842 88.397 52.842 C 87.744 52.842 87.144 52.749 86.597 52.562 C 86.044 52.375 85.564 52.085 85.157 51.692 C 84.744 51.299 84.421 50.795 84.187 50.182 C 83.954 49.562 83.837 48.815 83.837 47.942 L 83.837 31.782 L 86.357 31.782 ZM 92.263 50.852 L 93.603 48.612 C 94.276 49.172 95.033 49.629 95.873 49.982 C 96.713 50.335 97.693 50.512 98.813 50.512 C 100.16 50.512 101.223 50.232 102.003 49.672 C 102.79 49.112 103.183 48.355 103.183 47.402 C 103.183 47.015 103.126 46.652 103.013 46.312 C 102.9 45.979 102.68 45.659 102.353 45.352 C 102.026 45.039 101.57 44.729 100.983 44.422 C 100.396 44.115 99.636 43.785 98.703 43.432 C 97.696 43.039 96.843 42.652 96.143 42.272 C 95.443 41.885 94.876 41.465 94.443 41.012 C 94.016 40.552 93.71 40.045 93.523 39.492 C 93.336 38.945 93.243 38.315 93.243 37.602 C 93.243 36.915 93.386 36.262 93.673 35.642 C 93.966 35.029 94.396 34.492 94.963 34.032 C 95.536 33.579 96.236 33.222 97.063 32.962 C 97.896 32.695 98.843 32.562 99.903 32.562 C 101.063 32.562 102.1 32.679 103.013 32.912 C 103.926 33.145 104.833 33.479 105.733 33.912 L 104.753 36.182 C 104.12 35.809 103.376 35.495 102.523 35.242 C 101.676 34.989 100.786 34.862 99.853 34.862 C 98.62 34.862 97.65 35.099 96.943 35.572 C 96.23 36.052 95.873 36.682 95.873 37.462 C 95.873 37.835 95.926 38.169 96.033 38.462 C 96.133 38.749 96.336 39.029 96.643 39.302 C 96.95 39.569 97.38 39.842 97.933 40.122 C 98.486 40.402 99.22 40.712 100.133 41.052 C 101.213 41.459 102.126 41.879 102.873 42.312 C 103.62 42.739 104.216 43.195 104.663 43.682 C 105.116 44.169 105.44 44.692 105.633 45.252 C 105.826 45.812 105.923 46.429 105.923 47.102 C 105.923 48.015 105.746 48.825 105.393 49.532 C 105.04 50.245 104.55 50.849 103.923 51.342 C 103.296 51.835 102.546 52.209 101.673 52.462 C 100.793 52.715 99.84 52.842 98.813 52.842 C 97.453 52.842 96.213 52.659 95.093 52.292 C 93.973 51.925 93.03 51.445 92.263 50.852 ZM 114.523 52.502 L 107.323 33.602 L 109.923 32.592 L 116.083 49.592 L 122.273 32.682 L 124.683 33.602 L 117.513 52.502 L 114.523 52.502 ZM 134.589 44.212 L 134.589 42.112 L 141.169 42.112 L 141.169 52.502 L 138.819 52.502 L 138.819 50.542 C 138.166 51.122 137.372 51.649 136.439 52.122 C 135.506 52.602 134.469 52.842 133.329 52.842 C 132.189 52.842 131.146 52.615 130.199 52.162 C 129.246 51.715 128.422 51.072 127.729 50.232 C 127.042 49.392 126.502 48.379 126.109 47.192 C 125.716 46.012 125.519 44.682 125.519 43.202 C 125.519 41.635 125.719 40.205 126.119 38.912 C 126.519 37.612 127.102 36.492 127.869 35.552 C 128.636 34.605 129.576 33.872 130.689 33.352 C 131.796 32.825 133.059 32.562 134.479 32.562 C 135.712 32.562 136.799 32.712 137.739 33.012 C 138.686 33.312 139.579 33.695 140.419 34.162 L 139.439 36.372 C 138.652 35.945 137.859 35.592 137.059 35.312 C 136.252 35.032 135.346 34.892 134.339 34.892 C 133.459 34.892 132.646 35.069 131.899 35.422 C 131.152 35.775 130.509 36.299 129.969 36.992 C 129.429 37.679 129.006 38.532 128.699 39.552 C 128.392 40.572 128.239 41.735 128.239 43.042 C 128.239 44.215 128.379 45.265 128.659 46.192 C 128.939 47.112 129.329 47.895 129.829 48.542 C 130.336 49.182 130.939 49.672 131.639 50.012 C 132.339 50.345 133.109 50.512 133.949 50.512 C 134.469 50.512 134.962 50.452 135.429 50.332 C 135.896 50.212 136.326 50.052 136.719 49.852 C 137.112 49.659 137.472 49.445 137.799 49.212 C 138.126 48.979 138.409 48.742 138.649 48.502 L 138.649 44.212 L 134.589 44.212 Z" transform="matrix(1, 0, 0, 1, 0, 0)" style="fill: rgb(255, 255, 255); white-space: pre;"/>
</svg>